<svg width="25" height="20" viewBox="0 0 200 176" fill="none" xmlns="http://www.w3.org/2000/svg">
<path d="M58.9844 8.89844V17.6875H29.4922H0V88V158.312H29.4922H58.9844V167.102V175.891H82.4219H105.859V172.961V170.031H85.3516H64.8438V99.7188V29.4062H100H135.156V44.0547V58.7031H138.086H141.016V52.8438V46.9844H167.578H194.141V99.7188V152.453H167.578H141.016V108.508V64.5625H138.086H135.156V117.297V170.031H129.297H123.438V172.961V175.891H132.227H141.016V167.102V158.312H170.508H200V88V17.6875H170.508H141.016V8.89844V0.109375H100H58.9844V8.89844ZM135.156 14.7578V23.5469H100H64.8438V14.7578V5.96875H100H135.156V14.7578ZM58.9844 32.3359V41.125H41.4062H23.8281V44.0547V46.9844H41.4062H58.9844V99.7188V152.453H32.4219H5.85938V99.7188V46.9844H11.9141H17.9688V44.0547V41.125H11.9141H5.85938V32.3359V23.5469H32.4219H58.9844V32.3359ZM194.141 32.3359V41.125H167.578H141.016V32.3359V23.5469H167.578H194.141V32.3359Z" fill="white"/>
<path d="M70.7031 14.7578V17.6875H73.6328H76.5625V14.7578V11.8281H73.6328H70.7031V14.7578Z" fill="white"/>
<path d="M82.4219 14.7578V17.6875H85.3516H88.2812V14.7578V11.8281H85.3516H82.4219V14.7578Z" fill="white"/>
<path d="M11.7969 32.2187L11.9141 35.0703L14.7656 35.1875L17.5781 35.3047V32.3359V29.4062H14.6484H11.6797L11.7969 32.2187Z" fill="white"/>
<path d="M29.6875 61.8281C29.6875 64.3672 29.5703 64.9531 29.1016 64.9531C27.8516 64.9531 25.3516 66.5938 24.2578 68.0781C21.9531 71.2812 21.875 74.9922 24.0625 78.3125C25.5859 80.6953 27.9688 81.8281 32.0313 82.1016C36.0547 82.375 36.875 82.8828 36.875 85.1094C36.875 86.125 36.6016 86.75 35.9766 87.2578C35.1563 87.9219 34.3359 88 28.6719 88H22.2656V90.9297V93.8594H25.9766H29.6875V96.7891V99.7188H32.6172H35.5078L35.625 96.7109L35.7422 93.7422L37.0313 93.3125C42.8516 91.3594 44.6094 83.3125 40.1953 78.6641C38.75 77.1406 36.4063 76.2812 33.5156 76.2812C30.3906 76.2812 29.1016 75.7734 28.5156 74.3281C28.1641 73.4688 28.2031 73 28.6719 72.0625C28.9844 71.4375 29.5703 70.8125 29.8828 70.6562C30.2344 70.5391 33.3203 70.4219 36.7578 70.4219H42.9688V67.4922V64.5625H39.2578H35.5469V61.6328V58.7031H32.6172H29.6875V61.8281Z" fill="white"/>
<path d="M17.9688 120.227V123.156H32.6172H47.2656V120.227V117.297H32.6172H17.9688V120.227Z" fill="white"/>
<path d="M17.9688 137.805V140.734H20.8984H23.8281V137.805V134.875H20.8984H17.9688V137.805Z" fill="white"/>
<path d="M29.6875 137.805V140.734H32.6172H35.5469V137.805V134.875H32.6172H29.6875V137.805Z" fill="white"/>
<path d="M146.953 32.2188L147.07 35.0703H150H152.93L153.047 32.2188L153.164 29.4062H150H146.836L146.953 32.2188Z" fill="white"/>
<path d="M97.1485 41.3594C96.9922 41.5156 96.875 42.9219 96.875 44.4844C96.875 47.2969 96.875 47.2969 95.7422 47.5703C95.1172 47.6875 93.8672 48.4297 92.9688 49.2109C88.8282 52.7656 88.7891 58.5859 92.8907 62.2969C94.7657 63.9766 96.5625 64.5625 100.039 64.5625C102.227 64.5625 102.734 64.7188 103.438 65.4609C104.57 66.6719 104.57 68.4688 103.398 69.5625C102.539 70.3828 102.109 70.4219 96.1719 70.4219H89.8438V73.3516V76.2812H93.3594H96.875V79.2109V82.1406H100H103.125V79.0156C103.125 76.2812 103.203 75.8906 103.828 75.8906C104.219 75.8906 105.352 75.3828 106.328 74.7578C109.883 72.4922 111.133 67.6484 109.219 63.5469C107.656 60.1875 104.961 58.7031 100.313 58.7031C97.9688 58.7031 97.5 58.5859 96.6797 57.7266C96.1328 57.2188 95.7032 56.3203 95.7032 55.7734C95.7032 55.2266 96.1328 54.3281 96.6797 53.8203C97.6172 52.8828 97.7735 52.8438 103.906 52.8438H110.156V49.9141V46.9844H106.641H103.164L103.047 44.1328L102.93 41.3203L100.195 41.2031C98.6719 41.1641 97.3047 41.2031 97.1485 41.3594Z" fill="white"/>
<path d="M164.453 61.8281C164.453 64.6016 164.375 64.9531 163.711 64.9531C162.93 64.9531 160.273 66.6328 159.453 67.6484C156.133 71.7109 157.109 78.0391 161.484 80.7344C163.086 81.75 163.828 81.9062 166.836 82.0625C170 82.2188 170.391 82.3359 171.094 83.2344C172.148 84.5234 172.07 85.8906 170.898 87.0234C169.961 87.9609 169.805 88 163.672 88H157.422V90.9297V93.8594H160.938H164.453V96.7891V99.7188H167.383H170.312V96.7891C170.312 94.3281 170.43 93.8203 171.016 93.625C177.148 91.7891 179.609 85.1484 176.055 79.9141C174.336 77.4141 172.5 76.5547 168.32 76.2812C164.375 76.0469 163.281 75.4219 163.281 73.3125C163.281 72.4141 163.555 71.8281 164.297 71.2422C165.234 70.5 165.859 70.4219 171.523 70.4219H177.734V67.4922V64.5625H174.023H170.312V61.6328V58.7031H167.383H164.453V61.8281Z" fill="white"/>
<path d="M76.5625 102.648V105.578H100H123.438V102.648V99.7188H100H76.5625V102.648Z" fill="white"/>
<path d="M76.5625 120.227V123.156H100H123.438V120.227V117.297H100H76.5625V120.227Z" fill="white"/>
<path d="M152.734 120.227V123.156H167.383H182.031V120.227V117.297H167.383H152.734V120.227Z" fill="white"/>
<path d="M76.5625 137.805V140.734H100H123.438V137.805V134.875H100H76.5625V137.805Z" fill="white"/>
<path d="M152.734 137.805V140.734H155.664H158.594V137.805V134.875H155.664H152.734V137.805Z" fill="white"/>
<path d="M164.453 137.805V140.734H167.383H170.312V137.805V134.875H167.383H164.453V137.805Z" fill="white"/>
<path d="M76.5625 155.383V158.312H79.4922H82.4219V155.383V152.453H79.4922H76.5625V155.383Z" fill="white"/>
<path d="M88.2812 155.383V158.312H91.2109H94.1406V155.383V152.453H91.2109H88.2812V155.383Z" fill="white"/>
<path d="M111.719 172.961V175.891H114.648H117.578V172.961V170.031H114.648H111.719V172.961Z" fill="white"/>
</svg>
